<svg xmlns="http://www.w3.org/2000/svg" viewBox="0 0 512 512">
  <rect width="512" height="512" rx="80" fill="#8B4513"/>
  <rect x="100" y="80" width="240" height="352" rx="16" fill="#D4AF37"/>
  <rect x="120" y="100" width="200" height="312" rx="8" fill="#FDF8F0"/>
  <rect x="148" y="155" width="144" height="12" rx="6" fill="#8B4513"/>
  <rect x="148" y="185" width="120" height="12" rx="6" fill="#8B4513"/>
  <rect x="148" y="215" width="132" height="12" rx="6" fill="#8B4513"/>
  <rect x="148" y="245" width="108" height="12" rx="6" fill="#C4A882"/>
  <rect x="148" y="275" width="132" height="12" rx="6" fill="#C4A882"/>
  <rect x="148" y="305" width="120" height="12" rx="6" fill="#C4A882"/>
  <rect x="148" y="120" width="144" height="18" rx="6" fill="#5D3A1A" opacity="0.4"/>
  <rect x="344" y="88" width="68" height="336" rx="8" fill="#5D3A1A"/>
  <rect x="352" y="96" width="52" height="320" rx="4" fill="#4A2E12"/>
  <rect x="356" y="200" width="44" height="6" rx="3" fill="#D4AF37" opacity="0.5"/>
  <rect x="356" y="220" width="44" height="6" rx="3" fill="#D4AF37" opacity="0.3"/>
</svg>
