<svg xmlns="http://www.w3.org/2000/svg" viewBox="0 0 200 50" width="200" height="50">
  <defs>
    <linearGradient id="leafGrad" x1="0%" y1="0%" x2="100%" y2="100%">
      <stop offset="0%" style="stop-color:#2D5016"/>
      <stop offset="100%" style="stop-color:#87A878"/>
    </linearGradient>
  </defs>
  <!-- Leaf icon -->
  <g transform="translate(5,5)">
    <path d="M20 2C12 2 4 10 2 18c0 0 2 4 6 6 2-6 6-10 12-12-4 6-6 12-6 18 4-2 8-6 10-12 4-2 8-2 10 0-2-8-6-16-14-16z" fill="url(#leafGrad)"/>
    <path d="M8 24c-2 4-2 8 0 12" stroke="#2D5016" stroke-width="1.5" fill="none" stroke-linecap="round"/>
  </g>
  <!-- Company name -->
  <text x="48" y="24" font-family="Poppins, sans-serif" font-weight="700" font-size="18" fill="#2D5016">EcoClean</text>
  <text x="48" y="40" font-family="Inter, sans-serif" font-weight="400" font-size="11" fill="#87A878" letter-spacing="3">P R O</text>
</svg>
